<svg width="375" height="90" viewBox="0 0 375 90" fill="none" xmlns="http://www.w3.org/2000/svg">
<g opacity="0.8">
<mask id="mask0_628_10883" style="mask-type:alpha" maskUnits="userSpaceOnUse" x="0" y="0" width="375" height="90">
<rect x="0.5" y="0.5" width="374" height="89" fill="#E6DBF9" stroke="black"/>
</mask>
<g mask="url(#mask0_628_10883)">
<g filter="url(#filter0_f_628_10883)">
<rect x="-47.5215" y="-54" width="373.967" height="187.2" fill="#DAC8F9"/>
<rect x="-47.0215" y="-53.5" width="372.967" height="186.2" stroke="black"/>
</g>
<g filter="url(#filter1_f_628_10883)">
<rect width="115.56" height="114.455" transform="matrix(0.917171 0.398495 -0.496806 0.867862 293.434 -9)" fill="#C5EDF8"/>
<rect x="0.210182" y="0.633178" width="114.56" height="113.455" transform="matrix(0.917171 0.398495 -0.496806 0.867862 293.766 -9.00009)" stroke="black"/>
</g>
<g filter="url(#filter2_f_628_10883)">
<rect width="162.342" height="127.05" transform="matrix(0.9946 -0.103784 0.136201 0.990681 -35.125 -8.75049)" fill="#F5CFC8"/>
<rect x="0.565401" y="0.443448" width="161.342" height="126.05" transform="matrix(0.9946 -0.103784 0.136201 0.990681 -35.1823 -8.68768)" stroke="black"/>
</g>
<g filter="url(#filter3_f_628_10883)">
<rect x="162.189" y="-91.0405" width="164.256" height="120.173" fill="#DDFED5" fill-opacity="0.86"/>
<rect x="162.689" y="-90.5405" width="163.256" height="119.173" stroke="black"/>
</g>
</g>
</g>
<defs>
<filter id="filter0_f_628_10883" x="-97.5215" y="-104" width="473.967" height="287.2" filterUnits="userSpaceOnUse" color-interpolation-filters="sRGB">
<feFlood flood-opacity="0" result="BackgroundImageFix"/>
<feBlend mode="normal" in="SourceGraphic" in2="BackgroundImageFix" result="shape"/>
<feGaussianBlur stdDeviation="25" result="effect1_foregroundBlur_628_10883"/>
</filter>
<filter id="filter1_f_628_10883" x="196.572" y="-49" width="242.85" height="225.381" filterUnits="userSpaceOnUse" color-interpolation-filters="sRGB">
<feFlood flood-opacity="0" result="BackgroundImageFix"/>
<feBlend mode="normal" in="SourceGraphic" in2="BackgroundImageFix" result="shape"/>
<feGaussianBlur stdDeviation="20" result="effect1_foregroundBlur_628_10883"/>
</filter>
<filter id="filter2_f_628_10883" x="-75.125" y="-65.5991" width="258.77" height="222.715" filterUnits="userSpaceOnUse" color-interpolation-filters="sRGB">
<feFlood flood-opacity="0" result="BackgroundImageFix"/>
<feBlend mode="normal" in="SourceGraphic" in2="BackgroundImageFix" result="shape"/>
<feGaussianBlur stdDeviation="20" result="effect1_foregroundBlur_628_10883"/>
</filter>
<filter id="filter3_f_628_10883" x="122.189" y="-131.041" width="244.256" height="200.173" filterUnits="userSpaceOnUse" color-interpolation-filters="sRGB">
<feFlood flood-opacity="0" result="BackgroundImageFix"/>
<feBlend mode="normal" in="SourceGraphic" in2="BackgroundImageFix" result="shape"/>
<feGaussianBlur stdDeviation="20" result="effect1_foregroundBlur_628_10883"/>
</filter>
</defs>
</svg>
