<svg width="10" height="16" viewBox="0 0 10 16" fill="none" xmlns="http://www.w3.org/2000/svg">
<path d="M1.28215 10.4766C0.988753 10.1836 0.513447 10.1836 0.220049 10.4766C-0.0733499 10.7695 -0.0733498 11.2441 0.220049 11.5371L4.46895 15.7812C4.60978 15.9219 4.80098 16 5 16C5.19902 16 5.39022 15.9219 5.53105 15.7812L9.77995 11.5371C10.0733 11.2441 10.0733 10.7695 9.77995 10.4766C9.48655 10.1836 9.01125 10.1836 8.71785 10.4766L5.80098 13.3887L5.80098 0.75C5.80098 0.335937 5.46455 -2.38863e-07 5.04988 -2.20737e-07C4.85477 -2.12209e-07 4.67677 0.0742185 4.54327 0.197265C4.39315 0.333984 4.29878 0.53125 4.29878 0.75L4.29878 13.4883L1.28215 10.4766Z" fill="#B693FA"/>
</svg>
