<svg width="40" height="36" viewBox="0 0 40 36" fill="none" xmlns="http://www.w3.org/2000/svg">
<path d="M7.52344 14.2822C7.81641 13.9888 7.81641 13.5134 7.52344 13.22C7.23047 12.9267 6.75586 12.9267 6.46289 13.22L2.21875 17.4689C2.07812 17.6098 2 17.801 2 18C2 18.199 2.07812 18.3902 2.21875 18.5311L6.46289 22.78C6.75586 23.0733 7.23047 23.0733 7.52344 22.78C7.81641 22.4866 7.81641 22.0112 7.52344 21.7178L4.61133 18.801H37.25C37.6641 18.801 38 18.4645 38 18.0499C38 17.8548 37.9258 17.6768 37.8027 17.5433C37.666 17.3932 37.4688 17.2988 37.25 17.2988H4.51172L7.52344 14.2822Z" fill="#262D35"/>
</svg>
